<?xml version="1.0" encoding="UTF-8" standalone="no"?><!DOCTYPE svg PUBLIC "-//W3C//DTD SVG 1.1//EN" "http://www.w3.org/Graphics/SVG/1.1/DTD/svg11.dtd"><svg width="100%" height="100%" viewBox="0 0 600 600" version="1.1" xmlns="http://www.w3.org/2000/svg" xmlns:xlink="http://www.w3.org/1999/xlink" xml:space="preserve" xmlns:serif="http://www.serif.com/" style="fill-rule:evenodd;clip-rule:evenodd;stroke-linejoin:round;stroke-miterlimit:2;"><g id="Layer1"><path d="M468.057,599.78l-339.175,0.22c-6.848,-97 -60.931,-140.38 -57.987,-269.488c2.05,-89.909 44.19,-227.788 250.431,-276.697c25.006,-19.101 56.951,-34.478 57.492,-26.457c0.54,8.021 3.078,24.662 1.08,35.441c38.357,7.343 39.834,19.593 39.834,19.593c0,0 -19.053,31.134 -24.081,32.635c11.908,9.688 32.08,29.663 42.328,51.215c10.248,21.552 15.14,46.931 67.369,116.263c52.228,69.332 2.615,83.092 -17.427,89.23c-20.043,6.137 -25.91,-37.475 -68.353,-40.461c-42.444,-2.987 -123.77,-53.671 -121.117,-83.546c1.303,45.377 -5.772,74.449 50.593,146.099c47.778,60.735 115.026,123.308 119.013,205.953Z"/><path d="M410.3,174.048c0,0 -18.616,-10.378 -18.265,-16.575c0.788,-13.946 8.805,-10.801 13.803,1.576c3.947,9.774 4.462,14.999 4.462,14.999Z" style="fill:#fff;"/><path d="M368.28,36.362c0,0 -61.616,33.658 -75.209,53.752c13.67,-1.404 43.353,0.66 67.344,9.61c4.374,-9.488 13.48,-45.053 7.865,-63.362Z" style="fill:#fff;"/><path d="M293.071,90.114c-90.681,42.187 -130.061,97.135 -162.285,222.478c15.039,-116.164 44.563,-194.65 200.777,-254.17c-17.431,12.41 -21.087,15.59 -38.492,31.692Z" style="fill:#fff;"/><path d="M491.085,370.765c-38.614,-62.36 -80.374,-62.274 -99.055,-89.79c24.645,28.685 60.992,22.675 106.086,87.458l-7.031,2.332Z" style="fill:#fff;"/></g></svg>